<svg width="132" height="131" viewBox="0 0 132 131" fill="none" xmlns="http://www.w3.org/2000/svg">
<path fill-rule="evenodd" clip-rule="evenodd" d="M131.833 65.5C131.833 101.628 102.358 130.917 66 130.917C29.6412 130.917 0.166626 101.628 0.166626 65.5C0.166626 29.3714 29.6412 0.083374 66 0.083374C102.358 0.083374 131.833 29.3714 131.833 65.5ZM85.75 39.3334C85.75 50.1719 76.9079 58.9584 66 58.9584C55.0924 58.9584 46.25 50.1719 46.25 39.3334C46.25 28.4948 55.0924 19.7084 66 19.7084C76.9079 19.7084 85.75 28.4948 85.75 39.3334ZM65.9999 72.0417C47.8979 72.0417 31.9289 81.1163 22.449 94.9375C31.9289 108.759 47.8979 117.833 65.9999 117.833C84.1021 117.833 100.071 108.759 109.551 94.9375C100.071 81.1163 84.1021 72.0417 65.9999 72.0417Z" fill="#D7CCC8"/>
</svg>
