<svg width="21" height="17" viewBox="0 0 21 17" fill="none" xmlns="http://www.w3.org/2000/svg">
<path d="M3 1L18.5 16.5" stroke="#FFFFFB" stroke-linecap="round"/>
<path fill-rule="evenodd" clip-rule="evenodd" d="M8 3H6C2.68628 3 0 5.68628 0 9C0 12.3137 2.68628 15 6 15H8V13H6C3.79086 13 2 11.2092 2 9C2 6.79083 3.79086 5 6 5H8V3Z" fill="#FFFFFB" fill-opacity="0.6"/>
<path fill-rule="evenodd" clip-rule="evenodd" d="M13 15L15 15C18.3137 15 21 12.3137 21 9C21 5.68629 18.3137 3 15 3L13 3L13 5L15 5C17.2091 5 19 6.79086 19 9C19 11.2091 17.2091 13 15 13L13 13L13 15Z" fill="#FFFFFB" fill-opacity="0.6"/>
<rect x="6" y="8" width="9" height="2" rx="1" fill="#FFFFFB" fill-opacity="0.6"/>
</svg>
