<svg width="85" height="36" viewBox="0 0 85 36" fill="none" xmlns="http://www.w3.org/2000/svg">
<rect x="2" y="2" width="81" height="32" rx="16" fill="#2E2E2E" stroke="white" stroke-width="4"/>
<rect x="46.3291" y="15.1097" width="11.634" height="4.82165" fill="#FFFFFB"/>
<path d="M44.2627 10.4344V24.786C44.2627 26.1305 45.3418 27.2204 46.673 27.2204C48.0042 27.2204 49.0833 26.1305 49.0833 24.786V10.4344C49.0833 9.08993 48.0042 8 46.673 8C45.3418 8 44.2627 9.08993 44.2627 10.4344Z" fill="#FFFFFB"/>
<path d="M54.7314 10.4559V24.9341C54.7314 26.2905 55.8889 27.39 57.3168 27.39C58.7446 27.39 59.9021 26.2905 59.9021 24.9341V10.4559C59.9021 9.09955 58.7446 8 57.3168 8C55.8889 8 54.7314 9.09955 54.7314 10.4559Z" fill="#FFFFFB"/>
<path d="M40.0967 12.2933C40.8996 11.4904 40.9079 10.1662 39.954 9.55033C38.9326 8.89078 37.7909 8.42588 36.5864 8.18629C34.7058 7.8122 32.7564 8.0042 30.9849 8.73799C29.2134 9.47178 27.6992 10.7144 26.6339 12.3087C25.5686 13.9031 25 15.7775 25 17.695C25 19.6125 25.5686 21.4869 26.6339 23.0813C27.6992 24.6756 29.2134 25.9182 30.9849 26.652C32.7564 27.3858 34.7058 27.5778 36.5864 27.2037C37.7909 26.9641 38.9326 26.4992 39.954 25.8397C40.9079 25.2238 40.8996 23.8996 40.0967 23.0967C39.2939 22.2939 37.9954 22.3395 36.9574 22.7995C36.5831 22.9654 36.1899 23.0905 35.7843 23.1711C34.7012 23.3866 33.5786 23.276 32.5583 22.8534C31.5381 22.4308 30.6661 21.7152 30.0526 20.797C29.439 19.8788 29.1116 18.7993 29.1116 17.695C29.1116 16.5907 29.439 15.5112 30.0526 14.593C30.6661 13.6748 31.5381 12.9592 32.5583 12.5366C33.5786 12.114 34.7012 12.0034 35.7843 12.2189C36.1899 12.2995 36.5831 12.4246 36.9574 12.5905C37.9954 13.0505 39.2939 13.0961 40.0967 12.2933Z" fill="#FFFFFB"/>
</svg>
