<svg width="38" height="38" viewBox="0 0 38 38" fill="none" xmlns="http://www.w3.org/2000/svg">
<circle cx="19" cy="19" r="19" fill="#FFFFFB"/>
<path d="M24.3378 15.702L22.2974 13.6617C21.9069 13.2711 21.9069 12.638 22.2974 12.2475L23.4741 11.0708C23.8647 10.6802 24.4978 10.6802 24.8883 11.0708L26.9287 13.1111C27.3192 13.5016 27.3192 14.1348 26.9287 14.5253L25.752 15.702C25.3615 16.0925 24.7283 16.0925 24.3378 15.702Z" fill="#2E2E2E"/>
<path d="M10.6562 23.889L20.0198 14.5253C20.4103 14.1348 21.0435 14.1348 21.434 14.5253L23.4744 16.5657C23.8649 16.9562 23.8649 17.5894 23.4744 17.9799L14.1107 27.3435C13.9232 27.5311 13.6688 27.6364 13.4036 27.6364H11.3633C10.811 27.6364 10.3633 27.1887 10.3633 26.6364V24.5961C10.3633 24.3309 10.4686 24.0765 10.6562 23.889Z" fill="#2E2E2E"/>
</svg>
