<svg width="38" height="38" viewBox="0 0 38 38" fill="none" xmlns="http://www.w3.org/2000/svg">
<circle cx="19" cy="19" r="19" fill="#FFFFFB"/>
<path d="M16.8369 15.0033C17.1027 14.435 17.2219 13.7842 17.1485 13.0875C16.9744 11.5017 15.7369 10.1542 14.1602 9.88832C11.621 9.44832 9.44855 11.6208 9.88855 14.1508C10.1635 15.7275 11.5019 16.965 13.0877 17.1392C13.7844 17.2125 14.426 17.0933 15.0035 16.8275L17.1669 19L15.0035 21.1633C14.4352 20.8975 13.7844 20.7783 13.0877 20.8517C11.5019 21.0258 10.1544 22.2633 9.88855 23.84C9.44855 26.3792 11.621 28.5425 14.151 28.1025C15.7277 27.8275 16.9652 26.4892 17.1394 24.9033C17.2127 24.2067 17.0935 23.565 16.8277 22.9875L19.0002 20.8333L25.9577 27.7908C26.7735 28.6067 28.1669 28.0292 28.1669 26.8742V26.865C28.1669 26.5258 28.0294 26.1958 27.791 25.9483L16.8369 15.0033ZM13.5002 15.3333C12.4919 15.3333 11.6669 14.5175 11.6669 13.5C11.6669 12.4825 12.4919 11.6667 13.5002 11.6667C14.5085 11.6667 15.3335 12.4825 15.3335 13.5C15.3335 14.5175 14.5085 15.3333 13.5002 15.3333ZM13.5002 26.3333C12.4919 26.3333 11.6669 25.5175 11.6669 24.5C11.6669 23.4825 12.4919 22.6667 13.5002 22.6667C14.5085 22.6667 15.3335 23.4825 15.3335 24.5C15.3335 25.5175 14.5085 26.3333 13.5002 26.3333ZM19.0002 19.4583C18.7435 19.4583 18.5419 19.2567 18.5419 19C18.5419 18.7433 18.7435 18.5417 19.0002 18.5417C19.2569 18.5417 19.4585 18.7433 19.4585 19C19.4585 19.2567 19.2569 19.4583 19.0002 19.4583ZM25.9577 10.2092L19.9169 16.25L21.7502 18.0833L27.791 12.0425C28.0294 11.8042 28.1669 11.4742 28.1669 11.1258V11.1167C28.1669 9.97082 26.7735 9.39332 25.9577 10.2092Z" fill="#2E2E2E"/>
</svg>
