<svg width="44" height="44" viewBox="0 0 44 44" fill="none" xmlns="http://www.w3.org/2000/svg">
<circle cx="22" cy="22" r="22" fill="#DD7A7A"/>
<path d="M16 17H28V30C28 31.1046 27.1046 32 26 32H18C16.8954 32 16 31.1046 16 30V17Z" fill="white"/>
<path d="M14 15C14 14.4477 14.4477 14 15 14H29C29.5523 14 30 14.4477 30 15V15C30 15.5523 29.5523 16 29 16H15C14.4477 16 14 15.5523 14 15V15Z" fill="white"/>
<path d="M20 13C20 12.4477 20.4477 12 21 12H23C23.5523 12 24 12.4477 24 13V14H20V13Z" fill="white"/>
</svg>
