<svg width="96" height="57" viewBox="0 0 96 57" fill="none" xmlns="http://www.w3.org/2000/svg">
<path d="M82.9301 0H13.0699C5.8516 0 0 5.91018 0 13.2008V43.7992C0 51.0898 5.8516 57 13.0699 57H82.9301C90.1484 57 96 51.0898 96 43.7992V13.2008C96 5.91018 90.1484 0 82.9301 0Z" fill="#2E2E2E"/>
<path d="M40.4528 13.6671H20.8479C18.7884 13.6671 17.1187 15.3534 17.1187 17.4336C17.1187 19.5138 18.7884 21.2001 20.8479 21.2001H40.4528C42.5124 21.2001 44.182 19.5138 44.182 17.4336C44.182 15.3534 42.5124 13.6671 40.4528 13.6671Z" fill="#FFFFFB"/>
<path d="M60.776 38.251L55.086 16.8031C54.553 14.7938 52.5081 13.6013 50.5187 14.1397C48.5293 14.6781 47.3487 16.7434 47.8818 18.7528L53.5718 40.2007C54.1048 42.21 56.1497 43.4024 58.1391 42.864C60.1285 42.3256 61.3091 40.2603 60.776 38.251Z" fill="#FFFFFB"/>
<path d="M72.1824 38.251L66.4924 16.8031C65.9593 14.7938 63.9145 13.6013 61.9251 14.1397C59.9357 14.6781 58.7551 16.7434 59.2881 18.7528L64.9781 40.2007C65.5112 42.21 67.556 43.4024 69.5454 42.864C71.5348 42.3256 72.7154 40.2603 72.1824 38.251Z" fill="#FFFFFB"/>
<path d="M72.1906 40.2007L77.8805 18.7528C78.4136 16.7435 77.233 14.6781 75.2436 14.1397C73.2542 13.6014 71.2094 14.7938 70.6763 16.8031L64.9863 38.251C64.4533 40.2603 65.6338 42.3256 67.6232 42.864C69.6126 43.4024 71.6575 42.21 72.1906 40.2007Z" fill="#FFFFFB"/>
<path d="M60.7899 40.2007L66.4799 18.7528C67.0129 16.7435 65.8323 14.6781 63.8429 14.1397C61.8535 13.6014 59.8087 14.7938 59.2756 16.8031L53.5856 38.251C53.0526 40.2603 54.2332 42.3256 56.2226 42.864C58.212 43.4024 60.2568 42.21 60.7899 40.2007Z" fill="#FFFFFB"/>
<path d="M26.9212 17.4336V39.6381C26.9212 41.7183 28.5908 43.4047 30.6504 43.4047C32.71 43.4047 34.3796 41.7183 34.3796 39.6381V17.4336C34.3796 15.3534 32.71 13.6671 30.6504 13.6671C28.5908 13.6671 26.9212 15.3534 26.9212 17.4336Z" fill="#FFFFFB"/>
</svg>
