<svg width="85" height="36" viewBox="0 0 85 36" fill="none" xmlns="http://www.w3.org/2000/svg">
<rect width="85" height="36" rx="18" fill="#2E2E2E"/>
<path fill-rule="evenodd" clip-rule="evenodd" d="M23.1129 11.0731C22.579 9.92814 21.2181 9.4328 20.0732 9.96669C18.9283 10.5006 18.4329 11.8615 18.9668 13.0064L24.7358 25.3781C25.16 26.2878 26.1064 26.7874 27.0516 26.6865C27.9969 26.7874 28.9432 26.2878 29.3674 25.3781L35.1365 13.0064C35.6703 11.8615 35.175 10.5006 34.0301 9.96669C32.8852 9.4328 31.5242 9.92815 30.9903 11.0731L27.0516 19.5196L23.1129 11.0731Z" fill="#FFFFFB"/>
<path fill-rule="evenodd" clip-rule="evenodd" d="M46.3204 25.3781C46.8543 26.523 48.2152 27.0184 49.3602 26.4845C50.5051 25.9506 51.0004 24.5896 50.4665 23.4447L44.6975 11.0731C44.2733 10.1633 43.3269 9.66371 42.3816 9.76468C41.4364 9.66378 40.4901 10.1634 40.0659 11.0731L34.2969 23.4447C33.763 24.5897 34.2583 25.9506 35.4033 26.4845C36.5482 27.0184 37.9091 26.523 38.443 25.3781L42.3817 16.9315L46.3204 25.3781Z" fill="#FFFFFB"/>
<path fill-rule="evenodd" clip-rule="evenodd" d="M55 9C53.8954 9 53 9.89543 53 11V11.0397C52.9699 11.1892 52.9541 11.3439 52.9541 11.5024V25.119C52.9541 26.3947 53.978 27.4288 55.241 27.4288C56.504 27.4288 57.5278 26.3947 57.5278 25.119V23.134L61.1664 26.7726C62.0597 27.6659 63.508 27.6659 64.4013 26.7726C65.2945 25.8793 65.2945 24.431 64.4013 23.5378L61.3751 20.5116C63.5075 19.5914 65 17.47 65 15C65 11.6863 62.3137 9 59 9H55Z" fill="#FFFFFB"/>
</svg>
